<svg width="100" height="60" viewBox="0 0 100 60" fill="none" xmlns="http://www.w3.org/2000/svg">
<path d="M60.6582 0H38.9742V5.42188H60.6582V0Z" fill="black"/>
<path d="M56.5971 20.6078C56.5971 24.3522 53.5624 27.3905 49.8162 27.3905C46.0717 27.3905 43.0353 24.354 43.0353 20.6078C43.0353 16.8616 46.0717 13.8251 49.8162 13.8251C53.5606 13.8269 56.5971 16.8633 56.5971 20.6078ZM49.8162 8.44412C43.0993 8.44412 37.6525 13.8909 37.6525 20.6078C37.6525 27.3246 43.0993 32.7714 49.8162 32.7714C56.5348 32.7714 61.9816 27.3246 61.9816 20.6078C61.9816 13.8909 56.5348 8.44412 49.8162 8.44412Z" fill="black"/>
<path d="M36.1921 42.4803H42.1868C42.1868 42.4803 48.4162 42.5657 47.6087 48.4287C47.6087 48.4287 47.1141 51.0365 44.2982 51.997L47.9217 59.7154H44.7679L41.4574 52.4417H39.008L39.0347 59.7154H36.1921V42.4803ZM39.0329 45.225V49.6027H42.2899C42.2899 49.6027 43.9069 49.6276 44.6878 48.3504C44.6878 48.3504 45.4705 46.6819 43.9318 45.8227C43.9318 45.8227 43.2541 45.33 42.1601 45.2268H39.0329V45.225Z" fill="black"/>
<path d="M12.5995 55.48L14.6024 57.5096C13.062 59.0448 10.938 60 8.57041 60C3.85829 60 0 56.5811 0 51.209C0 46.0575 3.56478 42.418 8.57041 42.418C10.938 42.418 13.0637 43.3715 14.6024 44.9351L12.5995 46.9345C11.5749 45.9081 10.134 45.2748 8.57041 45.2748C5.05366 45.2748 2.90661 47.7652 2.90661 51.2072C2.90661 54.8699 5.42188 57.1414 8.57041 57.1414C10.1358 57.1414 11.5749 56.5082 12.5995 55.48Z" fill="black"/>
<path d="M32.5099 42.539V52.7708C32.5099 52.9451 32.4868 54.5781 31.6561 56.2395C30.4838 58.5823 28.2621 59.8755 25.4053 59.8755C22.5485 59.8755 20.3267 58.584 19.1545 56.2395C18.3238 54.5781 18.3006 52.9451 18.3006 52.7708V42.539H32.5099ZM29.678 52.7459V45.3958H21.1325V52.7708C21.1325 52.7708 21.1574 53.9431 21.7444 55.0442C22.4524 56.3854 23.6496 57.0222 25.4071 57.0222C27.1895 57.0222 28.3866 56.3872 29.0697 55.0442C29.6549 53.9413 29.678 52.7708 29.678 52.7459Z" fill="black"/>
<path d="M65.5428 59.6318H62.6593L54.1619 47.4717V59.6318H51.3051V42.539H54.1868L62.7091 54.7008V42.539H65.5428V59.6318Z" fill="black"/>
<path d="M81.6217 53.2831C81.6217 56.775 78.7631 59.6318 75.2731 59.6318C71.7812 59.6318 68.9244 56.775 68.9244 53.2831C68.9244 49.7913 71.7812 46.9345 75.2731 46.9345C78.7631 46.9345 81.6217 49.7913 81.6217 53.2831ZM69.7053 42.2953H80.9867V45.129H69.7053V42.2953ZM78.788 53.2831C78.788 51.3282 77.2262 49.7664 75.2731 49.7664C73.3181 49.7664 71.7563 51.3282 71.7563 53.2831C71.7563 55.2381 73.3181 56.7999 75.2731 56.7999C77.2262 56.7999 78.788 55.2381 78.788 53.2831Z" fill="black"/>
<path d="M99.6306 59.6318H96.7489L88.2514 47.4717V59.6318H85.3928V42.539H88.2763L96.7969 54.7008V42.539H99.6306V59.6318Z" fill="black"/>
</svg>
